<svg width="33" height="32" viewBox="0 0 33 32" fill="none" xmlns="http://www.w3.org/2000/svg">
<mask id="mask0_16_174" style="mask-type:alpha" maskUnits="userSpaceOnUse" x="0" y="0" width="33" height="32">
<path d="M1.8138 16.8187L6.71149 20.4001L4.85147 26.1674C4.55089 27.0619 4.54708 28.0298 4.84062 28.9266C5.13416 29.8234 5.70932 30.6013 6.48037 31.1442C7.23821 31.7045 8.15658 32.0047 9.09864 31.9999C10.0407 31.9952 10.956 31.6859 11.7082 31.118L16.4972 27.589L21.2876 31.1139C22.0441 31.671 22.9575 31.9736 23.8966 31.9782C24.8356 31.9827 25.752 31.6891 26.5138 31.1394C27.2757 30.5897 27.8438 29.8122 28.1365 28.9189C28.4293 28.0255 28.4316 27.0622 28.143 26.1674L26.283 20.4001L31.1807 16.8187C31.9362 16.2657 32.4978 15.4877 32.7853 14.596C33.0728 13.7043 33.0715 12.7444 32.7816 11.8535C32.4917 10.9626 31.928 10.1862 31.1711 9.63515C30.4141 9.08414 29.5026 8.78673 28.5668 8.7854H22.5506L20.7249 3.08826C20.4379 2.19148 19.8737 1.40917 19.1139 0.854127C18.3541 0.299085 17.4378 0 16.4972 0C15.5567 0 14.6404 0.299085 13.8806 0.854127C13.1208 1.40917 12.5566 2.19148 12.2695 3.08826L10.4439 8.7854H4.43324C3.49738 8.78673 2.58587 9.08414 1.82891 9.63515C1.07195 10.1862 0.508266 10.9626 0.218367 11.8535C-0.0715312 12.7444 -0.0728143 13.7043 0.214701 14.596C0.502217 15.4877 1.06382 16.2657 1.81931 16.8187H1.8138Z" fill="black"/>
</mask>
<g mask="url(#mask0_16_174)">
<rect x="-60" y="-28" width="102" height="77" fill="#FFAE00"/>
</g>
</svg>
